# AST/ASF file generated using VICON BodyLanguage
# -----------------------------------------------
:version 1.10
:name VICON
:units
  mass 1.0
  length 0.45
  angle deg
:documentation
   .ast/.asf automatically generated from VICON data using
   VICON BodyBuilder and BodyLanguage model FoxedUp or BRILLIANT.MOD
:root
   order TX TY TZ RX RY RZ
   axis XYZ
   position 0 0 0  
   orientation 0 0 0 
:bonedata
  begin
     id 1 
     name lhipjoint
     direction 0.547975 -0.797114 0.253638 
     length 2.36201 
     axis 0 0 0  XYZ
  end
  begin
     id 2 
     name lfemur
     direction 0.34202 -0.939693 0  
     length 7.69075  
     axis 0 0 20  XYZ
    dof rx ry rz
    limits (-160.0 20.0)
           (-70.0 70.0)
           (-60.0 70.0)
  end
  begin
     id 3 
     name ltibia
     direction 0.34202 -0.939693 0   
     length 7.91399   
     axis 0 0 20   XYZ
    dof rx
    limits (-10.0 170.0)
  end
  begin
     id 4 
     name lfoot
     direction 0.0705293 -0.193778 0.978507   
     length 2.13618   
     axis -90 7.62852e-016 20   XYZ
    dof rx rz
    limits (-45.0 90.0)
           (-70.0 20.0)
  end
  begin
     id 5 
     name ltoes
     direction 1.53592e-011 -4.21925e-011 1   
     length 1.07518   
     axis -90 7.62852e-016 20   XYZ
    dof rx
    limits (-90.0 20.0)
  end
  begin
     id 6 
     name rhipjoint
     direction -0.57 -0.782963 0.249136   
     length 2.4047  
     axis 0 0 0  XYZ 
  end
  begin
     id 7 
     name rfemur
     direction -0.34202 -0.939693 0   
     length 7.51486   
     axis 0 0 -20   XYZ
    dof rx ry rz
    limits (-160.0 20.0)
           (-70.0 70.0)
           (-70.0 60.0)
  end
  begin
     id 8 
     name rtibia
     direction -0.34202 -0.939693 0   
     length 8.08317   
     axis 0 0 -20   XYZ
    dof rx
    limits (-10.0 170.0)
 end
 begin
     id 9 
     name rfoot
     direction -0.104954 -0.281256 0.953876   
     length 2.30343  
     axis -90 -7.62852e-016 -20   XYZ
    dof rx rz
    limits (-45.0 90.0)
           (-20.0 70.0)
  end
  begin
     id 10 
     name rtoes
     direction -1.53556e-011 -4.21922e-011 1   
     length 1.14803   
     axis -90 -7.62852e-016 -20   XYZ
    dof rx
    limits (-90.0 20.0)
  end
  begin
     id 11 
     name lowerback
     direction -0.0152855 0.99353 -0.11254   
     length 2.05311   
     axis 0 0 0   XYZ
    dof rx ry rz
    limits (-20.0 45.0)
           (-30.0 30.0)
           (-30.0 30.0)
  end
  begin
     id 12 
     name upperback
     direction -0.00157509 0.999443 -0.033332   
     length 2.06353   
     axis 0 0 0   XYZ
    dof rx ry rz
    limits (-20.0 45.0)
           (-30.0 30.0)
           (-30.0 30.0)
  end
  begin
     id 13 
     name thorax
     direction 0.00577788 0.999804 0.0189484   
     length 2.08472   
     axis 0 0 0   XYZ
    dof rx ry rz
    limits (-20.0 45.0)
           (-30.0 30.0)
           (-30.0 30.0)
  end
  begin
     id 14 
     name lowerneck
     direction -1.09301e-005 0.994719 0.10264   
     length 1.76249   
     axis 0 0 0   XYZ
    dof rx ry rz
    limits (-20.0 45.0)
           (-30.0 30.0)
           (-30.0 30.0)
  end
  begin
     id 15 
     name upperneck
     direction 0.0495018 0.988526 -0.142706   
     length 1.77897   
     axis 0 0 0   XYZ
    dof rx ry rz
    limits (-20.0 45.0)
           (-30.0 30.0)
           (-30.0 30.0)
  end
  begin
     id 16
     name head
     direction 0.0142736 0.998114 -0.0597101  
     length 1.78934  
     axis 0 0 0   XYZ
    dof rx ry rz
    limits (-20.0 45.0)
           (-30.0 30.0)
           (-30.0 30.0)
  end
  begin
     id 17 
     name lclavicle
     direction 0.918111 0.396107 -0.0130883  
     length 3.37276  
     axis 0 0 0   XYZ
    dof ry rz
    limits (-20.0 10.0)
           (0.0 20.0)
  end
  begin
     id 18 
     name lhumerus
     direction 1 -4.48975e-011 -3.26108e-027   
     length 5.34298   
     axis 180 -30 -90   XYZ
    dof rx ry rz
    limits (-60.0 90.0)
           (-90.0 90.0)
           (-90.0 90.0)
  end
  begin
     id 19
     name lradius
     direction 1 -4.48964e-011 -8.84413e-028   
     length 3.67262   
     axis 180 -30 -90   XYZ
    dof rx
    limits (-10.0 170.0)
  end
  begin
     id 20
     name lwrist
     direction 1 -4.48991e-011 -1.24264e-027   
     length 1.83631   
     axis -2.17013e-015 90 90   XYZ
    dof ry
    limits (-180.0 0.0)
 end
  begin
     id 21 
     name lhand
     direction 1 -4.48855e-011 -2.48528e-027   
     length 0.599298   
     axis 1.58582e-015 90 90   XYZ
    dof rx rz
    limits (-90.0 90.0)
           (-45.0 45.0)
  end
  begin
     id 22 
     name lfingers
     direction 1 -4.48811e-011 -4.97056e-027   
     length 0.48317   
     axis 3.17164e-015 90 90   XYZ
    dof rx
    limits (0.0 90.0)
  end
  begin
     id 23
     name lthumb
     direction 0.707107 -6.34882e-011 0.707107   
     length 0.693738   
     axis -90 45 2.85299e-015   XYZ
    dof rx rz
    limits (-45.0 45.0)
           (-45.0 45.0)
  end
  begin
     id 24 
     name rclavicle
     direction -0.920511 0.384752 -0.0680135   
     length 3.43787  
     axis 0 0 0   XYZ 
    dof ry rz
    limits (-10.0 20.0)
           (-20.0 0.0)
  end
  begin
     id 25 
     name rhumerus
     direction -0.999976 -0.00330524 0.00603274  
     length 5.5498   
     axis 180 30 90   XYZ
    dof rx ry rz
    limits (-90.0 60.0)
           (-90.0 90.0)
           (-90.0 90.0)
  end
  begin
     id 26 
     name rradius
     direction -1 -4.48967e-011 8.62438e-027   
     length 3.69401   
     axis 180 30 90   XYZ
    dof rx
    limits (-10.0 170.0)
  end
  begin
     id 27 
     name rwrist
     direction -1 -4.4897e-011 9.54866e-027   
     length 1.84701   
     axis -7.69462e-015 -90 -90   XYZ
    dof ry
    limits (-180.0 0.0)
  end
  begin
     id 28
     name rhand
     direction -1 -4.48982e-011 1.90973e-026   
     length 0.638113   
     axis -1.21857e-014 -90 -90   XYZ
    dof rx rz
    limits (-90.0 90.0)
           (-45.0 45.0)
  end
  begin
     id 29
     name rfingers
     direction -1 -4.48936e-011 3.81946e-026   
     length 0.514463   
     axis -2.43714e-014 -90 -90   XYZ
    dof rx
    limits (0.0 90.0)
  end
  begin
     id 30
     name rthumb
     direction -0.707107 -6.34942e-011 0.707107   
     length 0.738669   
     axis -90 -45 -2.85299e-015   XYZ
    dof rx rz
    limits (-45.0 45.0)
           (-45.0 45.0)
  end
:hierarchy
  begin
    root lhipjoint rhipjoint lowerback
    lhipjoint lfemur
    lfemur ltibia
    ltibia lfoot
    lfoot ltoes
    rhipjoint rfemur
    rfemur rtibia
    rtibia rfoot
    rfoot rtoes
    lowerback upperback
    upperback thorax
    thorax lowerneck lclavicle rclavicle
    lowerneck upperneck
    upperneck head
    lclavicle lhumerus
    lhumerus lradius
    lradius lwrist
    lwrist lhand lthumb
    lhand lfingers
    rclavicle rhumerus
    rhumerus rradius
    rradius rwrist
    rwrist rhand rthumb
    rhand rfingers
  end

#!OML:ASF F:\twosubjects\two\Thursday\Session 1\Rory.ASF
:FULLY-SPECIFIED
:DEGREES
197
root 5.97996 11.2679 10.6502 165.109 -23.1019 201.563
lowerback 42.7534 15.5227 -19.5348
upperback 16.9012 2.89258 -6.31024
thorax 0.049019 -2.24018 0.793839
lowerneck -3.68949 -18.9929 -17.0802
upperneck -9.38457 -27.2445 40.1669
head 6.94146 -15.402 12.0108
rclavicle -1.59028e-013 -1.20861e-013
rhumerus -29.739 -26.1985 -50.522
rradius 147.36
rwrist 14.724
rhand -44.7682 54.6443
rfingers 7.12502
rthumb -17.5606 25.4174
lclavicle -1.59028e-013 -1.20861e-013
lhumerus 39.8674 6.31468 30.0594
lradius 109.989
lwrist 4.53178
lhand -11.5558 19.9933
lfingers 7.12502
lthumb 14.4851 49.4677
rfemur -45.1915 1.36021 -7.32552
rtibia 72.5472
rfoot 0.453465 -9.14577
rtoes -10.6038
lfemur -86.6654 16.6411 -0.527066
ltibia 88.7312
lfoot 8.34002 -14.0265
ltoes 16.8183
198
root 5.97207 11.2763 10.6481 165.064 -23.1501 201.451
lowerback 42.6971 15.6217 -19.9645
upperback 16.6618 2.86081 -6.43757
thorax -0.167942 -2.22672 0.836169
lowerneck -3.07865 -18.9541 -17.125
upperneck -9.11329 -27.252 40.0332
head 6.89141 -15.4122 12.0455
rclavicle 1.59028e-014 1.27222e-013
rhumerus -29.9804 -25.7989 -50.8203
rradius 147.28
rwrist 14.9695
rhand -44.7817 54.3008
rfingers 7.12502
rthumb -17.5736 25.075
lclavicle 1.59028e-014 1.27222e-013
lhumerus 38.4284 6.62031 29.8438
lradius 109.514
lwrist 4.59127
lhand -12.0051 20.1384
lfingers 7.12502
lthumb 14.0521 49.6434
rfemur -45.2633 1.36638 -7.35942
rtibia 72.8571
rfoot -0.0109977 -8.97806
rtoes -4.57958
lfemur -86.5792 16.7506 -0.826951
ltibia 88.7851
lfoot 8.29997 -14.0101
ltoes 17.8582
199
root 5.96296 11.293 10.6468 164.982 -23.1829 201.321
lowerback 42.2935 16.0895 -20.5974
upperback 16.7801 3.28965 -6.14928
thorax 0.0261956 -2.1122 1.23676
lowerneck -2.29165 -19.1985 -16.9005
upperneck -9.65739 -27.4035 39.6568
head 6.50114 -15.5891 11.923
rclavicle 1.20861e-013 1.59028e-015
rhumerus -30.0745 -25.8863 -50.6868
rradius 147.094
rwrist 15.2772
rhand -45.4982 54.8961
rfingers 7.12502
rthumb -18.2629 25.7334
lclavicle 1.20861e-013 1.59028e-015
lhumerus 37.5541 7.0438 30.2365
lradius 109.003
lwrist 4.16805
lhand -12.6213 20.3503
lfingers 7.12502
lthumb 13.4582 49.8955
rfemur -45.2463 1.26789 -7.32577
rtibia 73.0119
rfoot -0.301602 -8.44115
rtoes -3.1398
lfemur -86.4763 17.0251 -1.20814
ltibia 88.8656
lfoot 8.27118 -14.1515
ltoes 18.3814
200
root 5.94826 11.2913 10.6363 164.775 -23.3348 201.218
lowerback 42.1948 16.2663 -20.8775
upperback 16.9248 3.3672 -6.12061
thorax 0.213878 -2.13695 1.3361
lowerneck -3.5105 -19.0099 -17.2184
upperneck -8.61319 -27.4001 39.9961
head 7.16768 -15.3693 11.9501
rclavicle 3.18055e-015 -2.70347e-014
rhumerus -29.863 -25.9384 -50.9755
rradius 146.946
rwrist 15.2572
rhand -45.3146 56.0727
rfingers 7.12502
rthumb -18.0863 26.8936
lclavicle 3.18055e-015 -2.70347e-014
lhumerus 36.3078 7.6848 30.3468
lradius 108.688
lwrist 3.83662
lhand -13.7207 20.458
lfingers 7.12502
lthumb 12.3984 50.0703
rfemur -45.0554 1.20055 -7.38924
rtibia 73.0902
rfoot 0.0839073 -6.89184
rtoes -15.193
lfemur -86.3229 16.9711 -1.43707
ltibia 88.9666
lfoot 8.27231 -14.1693
ltoes 18.9297
201
root 5.93564 11.2888 10.6359 164.358 -23.4423 201.505
lowerback 42.2139 16.3559 -20.9152
upperback 17.0312 3.4516 -5.97139
thorax 0.315952 -2.13453 1.47223
lowerneck -4.09471 -18.9445 -17.3562
upperneck -8.04069 -27.4205 39.998
head 7.47604 -15.2536 11.9054
rclavicle -1.36764e-013 -8.5875e-014
rhumerus -29.5531 -25.8915 -51.3278
rradius 146.928
rwrist 15.2497
rhand -44.6866 55.9044
rfingers 7.12502
rthumb -17.4821 26.6705
lclavicle -1.36764e-013 -8.5875e-014
lhumerus 34.87 8.42231 30.6029
lradius 108.337
lwrist 3.43458
lhand -15.1306 20.6987
lfingers 7.12502
lthumb 11.0388 50.3885
rfemur -44.8298 1.29411 -7.0283
rtibia 73.1236
rfoot -0.845965 -7.02948
rtoes -15.1766
lfemur -86.3163 17.3559 -1.75925
ltibia 88.9895
lfoot 8.49062 -14.6268
ltoes 19.6846
202
root 5.91849 11.3317 10.6726 164.012 -23.6311 201.795
lowerback 42.387 16.505 -20.8463
upperback 17.0216 3.62238 -5.84075
thorax 0.252034 -2.05348 1.51027
lowerneck -3.69205 -18.8627 -17.0334
upperneck -8.28762 -27.3105 40.1371
head 7.27906 -15.2881 11.9933
rclavicle 5.725e-014 9.54166e-014
rhumerus -29.5582 -26.0773 -51.6786
rradius 146.769
rwrist 15.6125
rhand -44.4718 55.1182
rfingers 7.12502
rthumb -17.2754 25.8661
lclavicle 5.725e-014 9.54166e-014
lhumerus 33.7944 8.92481 30.8184
lradius 107.738
lwrist 2.59338
lhand -15.7206 21.1935
lfingers 7.12502
lthumb 10.4697 50.9128
rfemur -44.4827 1.20005 -6.50426
rtibia 73.0101
rfoot -1.68316 -7.09339
rtoes -17.2546
lfemur -85.5416 15.9464 -0.791477
ltibia 88.7751
lfoot 8.20582 -13.4985
ltoes 19.555
203
root 5.91176 11.3461 10.6705 164.027 -23.8015 201.573
lowerback 42.3302 16.7506 -21.3798
upperback 16.9289 3.70373 -5.82534
thorax 0.1881 -2.03623 1.68671
lowerneck -3.58793 -18.8861 -16.8013
upperneck -8.09391 -27.3879 40.0306
head 7.27602 -15.313 11.914
rclavicle -3.18055e-015 7.95139e-015
rhumerus -29.4838 -26.1754 -52.0858
rradius 146.653
rwrist 15.3777
rhand -43.919 54.4982
rfingers 7.12502
rthumb -16.7432 25.2002
lclavicle -3.18055e-015 7.95139e-015
lhumerus 32.5306 9.52889 30.9082
lradius 107.158
lwrist 1.91126
lhand -15.0659 21.8477
lfingers 7.12502
lthumb 11.1012 51.534
rfemur -44.4179 0.768388 -6.44423
rtibia 73.0824
rfoot -2.69961 -7.11891
rtoes -16.5556
lfemur -85.4224 15.9704 -1.30186
ltibia 88.7431
lfoot 8.27851 -13.6251
ltoes 19.0761
204
root 5.90592 11.2971 10.635 164.153 -24.057 201.362
lowerback 42.1403 16.6724 -21.9449
upperback 16.861 3.48119 -5.76769
thorax 0.20154 -2.15891 2.04819
lowerneck -3.66906 -18.9096 -16.9651
upperneck -7.80172 -27.417 39.67
head 7.32483 -15.2565 11.7934
rclavicle -3.18055e-015 -8.74653e-014
rhumerus -29.0708 -25.5017 -52.5112
rradius 146.448
rwrist 16.0693
rhand -45.079 54.4146
rfingers 7.12502
rthumb -17.8597 25.2147
lclavicle -3.18055e-015 -8.74653e-014
lhumerus 30.704 10.5015 31.2307
lradius 106.654
lwrist 1.5898
lhand -14.1114 22.8142
lfingers 7.12502
lthumb 12.0217 52.449
rfemur -44.6299 0.0783617 -6.58071
rtibia 73.4052
rfoot -3.694 -7.34055
rtoes -13.7272
lfemur -86.3731 17.2253 -2.95714
ltibia 89.046
lfoot 8.78068 -14.9647
ltoes 17.858
205
root 5.87863 11.2755 10.6477 163.998 -24.5785 201.484
lowerback 42.6345 16.3734 -21.5897
upperback 16.5936 3.18949 -5.86512
thorax -0.162209 -2.18867 1.90389
lowerneck -2.33494 -18.8222 -16.7224
upperneck -8.56229 -27.1801 39.6649
head 6.74817 -15.357 11.9885
rclavicle 2.8625e-014 1.31993e-013
rhumerus -29.5579 -25.2656 -52.5138
rradius 146.448
rwrist 16.0347
rhand -45.4555 55.1367
rfingers 7.12502
rthumb -18.2219 25.9702
lclavicle 2.8625e-014 1.31993e-013
lhumerus 28.9854 10.7646 31.3427
lradius 106.188
lwrist 1.54593
lhand -14.1084 24.1139
lfingers 7.12502
lthumb 12.0246 53.7485
rfemur -44.3811 -0.668183 -6.49231
rtibia 73.4638
rfoot -4.1592 -7.90421
rtoes -12.2514
lfemur -86.7396 16.7132 -3.63956
ltibia 89.1384
lfoot 8.91449 -14.6561
ltoes 17.6431
206
root 5.86196 11.2397 10.634 163.546 -24.8857 201.898
lowerback 43.1539 16.1126 -21.2671
upperback 16.4654 2.89656 -5.81032
thorax -0.382941 -2.2738 1.92723
lowerneck -1.74516 -18.9031 -16.6574
upperneck -8.94512 -27.1786 39.3537
head 6.44193 -15.4362 11.9392
rclavicle -1.39944e-013 -2.25819e-013
rhumerus -29.1357 -24.9719 -52.93
rradius 146.442
rwrist 15.2365
rhand -44.91 55.7464
rfingers 7.12502
rthumb -17.697 26.5317
lclavicle -1.39944e-013 -2.25819e-013
lhumerus 26.792 11.5354 31.3075
lradius 105.845
lwrist 1.12952
lhand -14.4275 25.8493
lfingers 7.12502
lthumb 11.7169 55.5016
rfemur -44.1353 -1.27766 -5.90952
rtibia 73.5901
rfoot -4.18639 -8.67507
rtoes -11.8765
lfemur -87.0421 16.6626 -4.09276
ltibia 89.398
lfoot 9.08977 -14.3358
ltoes 19.669
207
root 5.85559 11.2398 10.625 163.1 -24.9176 202.338
lowerback 43.0545 16.0473 -21.3911
upperback 16.6123 2.82614 -5.57723
thorax -0.200332 -2.35951 2.25337
lowerneck -2.43999 -19.1419 -16.6631
upperneck -8.32504 -27.4851 38.5741
head 6.64888 -15.401 11.4899
rclavicle 1.24042e-013 1.145e-013
rhumerus -27.9752 -24.4623 -53.7944
rradius 146.094
rwrist 15.3768
rhand -45.4092 56.0723
rfingers 7.12502
rthumb -18.1774 26.9017
lclavicle 1.24042e-013 1.145e-013
lhumerus 24.7665 12.8338 31.5261
lradius 105.299
lwrist 0.415206
lhand -14.4551 26.6102
lfingers 7.12502
lthumb 11.6903 56.264
rfemur -43.868 -1.60644 -5.05184
rtibia 73.4768
rfoot -4.04814 -9.42511
rtoes -10.8489
lfemur -87.1318 17.1392 -4.54581
ltibia 89.5872
lfoot 9.13552 -14.0013
ltoes 21.632
